<mxfile host="app.diagrams.net" modified="2023-08-17T04:03:29.111Z" agent="Mozilla/5.0 (Windows NT 10.0; Win64; x64; rv:109.0) Gecko/20100101 Firefox/116.0" etag="Sf-HUvTHIQFqggWxe0Lv" version="21.6.8" type="github">
  <diagram name="第 1 页" id="yjUzBa-hnJfAv7G-hfUQ">
    <mxGraphModel dx="1055" dy="652" grid="0" gridSize="10" guides="1" tooltips="1" connect="0" arrows="0" fold="1" page="0" pageScale="1" pageWidth="827" pageHeight="1169" math="0" shadow="0">
      <root>
        <mxCell id="0" />
        <mxCell id="1" parent="0" />
        <mxCell id="Ysw_DJVvbCU8Se5GyauY-1" value="" style="rounded=1;whiteSpace=wrap;html=1;strokeColor=none;fillColor=#232428;aspect=fixed;arcSize=2.352;" parent="1" vertex="1">
          <mxGeometry x="240" y="120" width="340" height="538.96" as="geometry" />
        </mxCell>
        <mxCell id="Ysw_DJVvbCU8Se5GyauY-3" value="" style="rounded=1;whiteSpace=wrap;html=1;fillColor=#f5e0ed;strokeColor=none;arcSize=13.3333;" parent="1" vertex="1">
          <mxGeometry x="240" y="120" width="340" height="60" as="geometry" />
        </mxCell>
        <mxCell id="RMd1zjgo0eg8nKM_aOj6-3" value="" style="rounded=1;whiteSpace=wrap;html=1;strokeColor=none;fillColor=#111214;arcSize=2.5974;" vertex="1" parent="1">
          <mxGeometry x="256" y="238" width="308" height="404" as="geometry" />
        </mxCell>
        <mxCell id="RMd1zjgo0eg8nKM_aOj6-6" value="" style="rounded=0;whiteSpace=wrap;html=1;fillColor=#f5e0ed;strokeColor=none;arcSize=13.3333;" vertex="1" parent="1">
          <mxGeometry x="240" y="145" width="340" height="35" as="geometry" />
        </mxCell>
        <mxCell id="Ysw_DJVvbCU8Se5GyauY-7" value="" style="ellipse;whiteSpace=wrap;html=1;aspect=fixed;strokeColor=none;fillColor=#232428;" parent="1" vertex="1">
          <mxGeometry x="256" y="130" width="90" height="90" as="geometry" />
        </mxCell>
        <mxCell id="Ysw_DJVvbCU8Se5GyauY-8" value="" style="ellipse;whiteSpace=wrap;html=1;aspect=fixed;strokeColor=none;fillColor=#F5E0ED;" parent="1" vertex="1">
          <mxGeometry x="261" y="135" width="80" height="80" as="geometry" />
        </mxCell>
      </root>
    </mxGraphModel>
  </diagram>
</mxfile>
